<svg width="694" height="294" viewBox="0 0 694 294" fill="none" xmlns="http://www.w3.org/2000/svg">
<path d="M688.471 251.714C691.861 254.343 692.487 257.924 693.034 261.989C693.312 264.513 693.302 267.047 693.288 269.584C693.284 270.481 693.288 271.378 693.293 272.276C693.305 284.282 693.305 284.282 689.898 288.285C689.578 288.549 689.259 288.812 688.93 289.084C688.701 289.274 688.472 289.465 688.236 289.661C684.873 291.959 680.474 292.208 676.546 291.793C673.862 291.217 671.425 290.418 669.58 288.31C665.448 281.393 665.954 273.664 666.097 265.864C666.102 265.591 666.107 265.318 666.112 265.037C666.227 260.419 666.998 255.723 670.354 252.319C675.273 247.714 683.108 248.275 688.471 251.714ZM676.933 258.511C675.593 262.074 676.042 266.449 676.058 270.194C676.062 271.356 676.058 272.517 676.053 273.679C676.054 274.425 676.055 275.172 676.056 275.918C676.055 276.261 676.053 276.604 676.052 276.958C676.067 279.059 676.264 280.891 676.933 282.892C678.257 283.774 678.745 283.75 680.295 283.714C680.68 283.707 681.064 283.7 681.461 283.693C681.755 283.684 682.048 283.675 682.351 283.666C683.538 281.046 683.682 278.815 683.666 275.96C683.667 275.525 683.669 275.089 683.67 274.64C683.67 273.722 683.668 272.805 683.663 271.887C683.657 270.487 683.663 269.087 683.671 267.686C683.67 266.792 683.669 265.898 683.666 265.004C683.669 264.587 683.671 264.171 683.673 263.742C683.659 260.279 683.659 260.279 681.964 257.35C681.089 257.258 681.089 257.258 680.078 257.253C679.735 257.243 679.393 257.233 679.04 257.223C677.89 257.377 677.654 257.624 676.933 258.511Z" fill="white"/>
<path d="M1.63532 0C6.0882 0.572028 9.59997 2.78921 13.2407 5.30609C14.3548 6.01997 15.4945 6.49346 16.7282 6.96594C16.7282 7.22136 16.7282 7.47678 16.7282 7.73994C17.2191 7.87164 17.2191 7.87164 17.7199 8.006C18.9838 8.48859 19.8929 9.0907 20.967 9.89865C22.2379 10.7815 23.6077 11.4735 24.9715 12.201C25.8749 12.6938 26.7449 13.2101 27.6125 13.7626C29.5648 15.0053 31.5484 16.2313 33.7077 17.0762C34.6055 17.4459 35.0904 17.8171 35.691 18.5759C35.691 18.8313 35.691 19.0867 35.691 19.3498C35.9145 19.4057 36.138 19.4616 36.3683 19.5192C37.1745 19.7207 37.9808 19.9223 38.787 20.1238C38.787 20.3793 38.787 20.6347 38.787 20.8978C39.001 20.9402 39.215 20.9826 39.4355 21.0263C42.2827 21.8446 44.8504 23.7559 47.2692 25.4163C48.3951 26.1324 49.5398 26.6133 50.7839 27.0898C50.7839 27.3452 50.7839 27.6006 50.7839 27.8638C51.0359 27.9571 51.2878 28.0504 51.5473 28.1465C53.0717 28.7857 54.5217 29.538 55.9842 30.3067C56.2698 30.4531 56.5554 30.5995 56.8497 30.7504C58.6425 31.6922 60.0906 32.7317 61.6198 34.0557C62.23 34.4593 62.8505 34.8479 63.4823 35.2167C63.7801 35.3923 64.0779 35.5679 64.3848 35.7488C65.2933 36.2659 66.2064 36.772 67.1225 37.2757C69.0212 38.3276 70.8696 39.455 72.7218 40.5863C74.9883 41.9629 77.2476 43.2621 79.6394 44.4079C81.7643 45.4291 83.571 46.6528 85.4443 48.0768C86.4675 48.8196 87.4847 49.3487 88.6265 49.8788C91.0473 51.0956 93.3299 52.6291 95.5939 54.113C97.5179 55.373 99.4604 56.4884 101.529 57.4932C103.399 58.4037 105.091 59.3853 106.79 60.5771C107.838 61.2519 108.922 61.7867 110.043 62.3307C111.858 63.2153 113.461 64.1225 115.025 65.4025C115.025 65.6579 115.025 65.9133 115.025 66.1765C114.77 66.1765 114.515 66.1765 114.251 66.1765C114.188 66.4558 114.124 66.7352 114.058 67.023C113.211 68.6106 111.909 69.2021 110.381 70.0464C109.9 70.3177 109.418 70.5893 108.936 70.8612C108.129 71.3163 107.322 71.7706 106.513 72.2225C104.718 73.2258 102.949 74.2636 101.19 75.3298C97.4057 77.5967 97.4057 77.5967 95.6756 78.1734C95.6756 78.4288 95.6756 78.6842 95.6756 78.9474C95.2924 78.9474 94.9093 78.9474 94.5146 78.9474C94.5146 79.2028 94.5146 79.4582 94.5146 79.7214C94.0437 79.889 93.5727 80.0566 93.0875 80.2293C92.0807 80.6028 91.258 80.9787 90.3302 81.5354C89.4836 82.0433 89.4836 82.0433 88.3226 82.0433C88.3226 82.2988 88.3226 82.5542 88.3226 82.8173C88.0468 82.967 87.7709 83.1167 87.4867 83.2709C87.116 83.4724 86.7453 83.6739 86.3635 83.8816C85.9758 84.0921 85.5882 84.3026 85.1889 84.5195C84.2873 85.017 83.4012 85.5302 82.5177 86.0584C81.3567 86.6873 81.3567 86.6873 80.1957 86.6873C79.9403 87.1981 79.6849 87.709 79.4217 88.2353C79.0386 88.2353 78.6554 88.2353 78.2607 88.2353C78.2607 88.4907 78.2607 88.7461 78.2607 89.0093C77.674 89.2368 77.674 89.2368 77.0755 89.4688C75.7906 90.0177 74.7373 90.7362 73.6137 91.5701C70.2002 93.9395 65.7467 96.489 61.6198 97.1362C61.4921 97.5193 61.3644 97.9025 61.2328 98.2972C60.9774 98.2972 60.722 98.2972 60.4589 98.2972C60.4589 98.5526 60.4589 98.808 60.4589 99.0712C60.0388 99.2767 59.6188 99.4823 59.186 99.694C58.6266 99.9701 58.0673 100.246 57.508 100.522C57.2321 100.657 56.9563 100.792 56.672 100.931C55.3779 101.572 54.142 102.223 52.9517 103.044C51.9449 103.715 51.9449 103.715 51.1709 103.715C51.1709 103.971 51.1709 104.226 51.1709 104.489C50.8462 104.645 50.8462 104.645 50.5148 104.804C48.2077 105.931 45.9823 107.158 43.7838 108.483C42.5113 109.232 41.4173 109.72 39.948 109.907C39.948 110.163 39.948 110.418 39.948 110.681C39.5649 110.681 39.1818 110.681 38.787 110.681C38.787 110.937 38.787 111.192 38.787 111.455C37.6624 111.941 36.931 112.229 35.691 112.229C35.691 112.485 35.691 112.74 35.691 113.003C35.4621 113.097 35.2331 113.191 34.9972 113.287C33.1952 114.052 31.7924 114.848 30.2731 116.099C29.89 116.099 29.5068 116.099 29.1121 116.099C29.1121 116.354 29.1121 116.61 29.1121 116.873C28.7794 117.061 28.4466 117.248 28.1038 117.441C25.7506 118.774 23.4212 120.127 21.1303 121.565C19.1938 122.77 17.2232 123.809 15.1742 124.806C12.6789 126.061 10.2063 127.421 7.99658 129.136C6.35804 130.347 4.40529 131.185 2.40932 131.579C1.57363 131.204 1.57363 131.204 0.861328 130.805C0.863323 130.573 0.865317 130.341 0.867372 130.102C0.932025 122.557 0.991504 115.012 1.04777 107.466C1.05246 106.838 1.05716 106.21 1.06188 105.582C1.18701 88.9131 1.2653 72.2453 1.26042 55.5764C1.26032 55.1978 1.26023 54.8192 1.26013 54.4291C1.25813 46.96 1.2523 39.4909 1.23934 32.0217C1.2345 29.2145 1.23084 26.4072 1.22796 23.5999C1.2262 21.9751 1.22366 20.3503 1.21918 18.7255C1.18479 6.13731 1.18479 6.13731 1.63532 0Z" fill="#DE3427"/>
<path d="M128.183 95.2012C134.181 95.1922 140.179 95.1854 146.177 95.1812C148.962 95.1792 151.746 95.1765 154.531 95.172C156.957 95.1682 159.384 95.1657 161.81 95.1648C163.095 95.1643 164.381 95.1629 165.666 95.1603C167.099 95.1575 168.532 95.1571 169.965 95.1573C170.394 95.1559 170.823 95.1545 171.265 95.1531C171.653 95.1536 172.041 95.1542 172.441 95.1547C172.78 95.1543 173.12 95.154 173.469 95.1536C174.236 95.2012 174.236 95.2012 174.623 95.5882C174.665 96.1298 174.68 96.6733 174.684 97.2164C174.688 97.5686 174.692 97.9208 174.696 98.2836C174.699 98.8692 174.699 98.8692 174.702 99.4666C174.706 99.8766 174.71 100.287 174.714 100.709C174.726 102.082 174.736 103.456 174.745 104.829C174.753 105.793 174.762 106.757 174.77 107.72C174.792 110.307 174.811 112.893 174.829 115.48C174.841 117.091 174.853 118.703 174.865 120.315C174.919 127.423 174.967 134.532 175.01 141.641C175.012 142.004 175.014 142.368 175.017 142.742C175.058 149.68 175.063 156.616 175.025 163.553C175.013 165.736 175.003 167.918 174.995 170.101C174.975 174.891 174.949 179.68 174.917 184.47C174.901 186.905 174.887 189.339 174.876 191.774C174.756 218.53 174.756 218.53 171.527 229.489C171.416 229.876 171.306 230.263 171.192 230.662C168.254 240.769 163.806 250.276 157.208 258.514C156.927 258.882 156.646 259.25 156.357 259.63C144.396 275.109 126.887 286.524 107.866 290.925C107.374 291.039 106.883 291.153 106.377 291.27C100.223 292.631 94.1576 293.128 87.8631 293.126C87.5289 293.126 87.1947 293.127 86.8504 293.127C77.5117 293.111 68.6023 291.478 59.6849 288.7C59.2723 288.573 58.8597 288.447 58.4347 288.317C55.4822 287.327 52.7402 285.854 49.978 284.433C48.9171 283.894 47.8416 283.386 46.7688 282.871C44.951 281.963 43.3276 280.91 41.688 279.714C40.6806 278.995 39.6466 278.344 38.5935 277.694C34.9639 275.393 31.864 272.592 28.7595 269.639C28.5212 269.413 28.2828 269.187 28.0373 268.954C27.8248 268.751 27.6123 268.547 27.3934 268.338C26.7282 267.722 26.7282 267.722 25.6291 267.028C25.6291 266.772 25.6291 266.517 25.6291 266.254C25.4051 266.154 25.1812 266.054 24.9504 265.952C20.0953 263.317 16.3652 256.66 13.7275 252.003C13.2551 251.155 13.2551 251.155 12.7025 250.355C10.4404 246.929 9.19474 243.008 7.82728 239.164C7.63094 238.617 7.63094 238.617 7.43064 238.059C3.61475 227.34 1.45003 216.794 0.474338 205.495C0.440943 205.131 0.407543 204.766 0.373136 204.391C0.0929415 201.119 0.0241093 197.866 0.0223374 194.584C0.0210872 194.026 0.0197789 193.468 0.0184282 192.911C0.0161277 191.746 0.015398 190.581 0.0156292 189.416C0.0156604 188.245 0.0130124 187.074 0.00769271 185.904C-0.0184612 180.042 0.00132279 174.198 0.406311 168.347C0.43315 167.936 0.459983 167.525 0.487636 167.102C1.02303 160.375 1.02303 160.375 2.83043 158.689C3.75652 158.053 4.69879 157.535 5.6988 157.024C6.40697 156.632 7.11496 156.24 7.82274 155.848C8.33056 155.575 8.33056 155.575 8.84863 155.297C9.92124 154.712 10.9439 154.069 11.9633 153.396C14.4669 151.785 17.0402 150.295 19.6118 148.796C20.6894 148.167 21.7655 147.535 22.8415 146.903C45.0147 133.901 45.0147 133.901 47.301 133.901C47.3415 141.215 47.3342 148.522 47.1348 155.833C46.4673 180.168 46.4673 180.168 47.3977 204.479C47.4188 204.786 47.44 205.093 47.4617 205.408C48.2444 216.255 50.9973 225.643 58.5239 233.746C58.8771 234.025 59.2303 234.303 59.5942 234.59C59.8795 234.822 60.1649 235.055 60.4589 235.294C60.4589 235.55 60.4589 235.805 60.4589 236.068C60.6818 236.17 60.9048 236.273 61.1346 236.378C62.0489 236.864 62.7776 237.421 63.579 238.076C72.5745 245.157 82.9412 247.168 94.1911 245.938C97.7759 245.469 100.937 244.654 104.19 243.034C104.697 242.799 105.204 242.564 105.712 242.33C108.605 240.968 111.128 239.542 113.547 237.411C114.251 236.842 114.251 236.842 115.025 236.842C115.153 236.459 115.281 236.076 115.412 235.681C116.048 235.027 116.695 234.384 117.347 233.746C125.007 225.695 126.781 213.65 127.439 203.003C127.464 202.595 127.464 202.595 127.49 202.178C127.927 194.888 127.89 187.598 127.862 180.297C127.856 178.319 127.854 176.342 127.852 174.364C127.847 170.186 127.838 166.009 127.827 161.831C127.809 154.808 127.796 147.785 127.787 140.761C127.786 139.956 127.785 139.151 127.784 138.345C127.763 123.96 127.89 109.583 128.183 95.2012Z" fill="white"/>
<path d="M210.614 97.1362C211.427 97.147 211.427 97.147 212.49 97.2844C214.682 97.5076 216.83 97.5463 219.029 97.5202C219.364 97.5171 219.699 97.514 220.044 97.5108C221.44 97.4969 222.837 97.4804 224.233 97.4569C225.264 97.4405 226.295 97.4315 227.326 97.4235C227.64 97.4162 227.954 97.409 228.277 97.4016C230.069 97.3935 231.217 97.5227 232.673 98.6842C233.269 99.4856 233.784 100.25 234.293 101.103C234.597 101.594 234.901 102.084 235.206 102.574C235.362 102.827 235.518 103.079 235.679 103.34C236.449 104.571 237.257 105.775 238.066 106.98C238.227 107.22 238.387 107.46 238.552 107.708C239.373 108.936 240.197 110.162 241.022 111.387C242.816 114.058 244.553 116.751 246.228 119.499C248.433 123.093 250.764 126.601 253.111 130.104C255.477 133.636 257.76 137.215 260.018 140.817C261.061 142.475 262.124 144.12 263.186 145.766C263.764 146.663 264.34 147.561 264.913 148.46C266.184 150.454 267.458 152.438 268.833 154.363C271.003 157.423 272.93 160.649 274.881 163.851C276.448 166.421 278.069 168.942 279.761 171.431C280.527 172.564 281.255 173.675 281.821 174.923C282.077 174.923 282.332 174.923 282.595 174.923C282.723 149.509 282.851 124.094 282.982 97.9102C284.462 97.6142 285.579 97.4758 287.055 97.4793C287.473 97.4793 287.892 97.4794 288.323 97.4794C288.993 97.4824 288.993 97.4824 289.677 97.4854C290.139 97.486 290.6 97.4865 291.075 97.4871C292.545 97.4893 294.016 97.4941 295.487 97.499C296.485 97.501 297.483 97.5027 298.481 97.5043C300.926 97.5086 303.37 97.5151 305.815 97.5232C306.173 98.7413 306.251 99.8321 306.252 101.1C306.253 101.513 306.254 101.926 306.255 102.351C306.255 103.031 306.255 103.031 306.254 103.725C306.255 104.207 306.255 104.689 306.256 105.186C306.258 106.524 306.259 107.863 306.258 109.201C306.258 110.645 306.26 112.088 306.262 113.531C306.265 116.359 306.266 119.187 306.267 122.015C306.267 124.313 306.268 126.611 306.269 128.909C306.272 135.422 306.274 141.934 306.274 148.447C306.274 148.798 306.274 149.149 306.274 149.511C306.274 149.863 306.274 150.215 306.274 150.577C306.273 156.277 306.277 161.978 306.283 167.679C306.288 173.529 306.291 179.38 306.29 185.231C306.29 188.517 306.291 191.803 306.296 195.089C306.299 197.886 306.3 200.683 306.297 203.48C306.296 204.908 306.296 206.335 306.299 207.763C306.303 209.309 306.301 210.855 306.298 212.402C306.3 212.855 306.302 213.307 306.304 213.773C306.302 214.187 306.3 214.602 306.298 215.028C306.298 215.564 306.298 215.564 306.298 216.11C306.192 217.205 305.882 218.043 305.428 219.04C302.48 219.005 299.532 218.963 296.584 218.917C295.581 218.903 294.578 218.889 293.575 218.877C292.134 218.859 290.694 218.837 289.253 218.813C288.804 218.809 288.354 218.805 287.892 218.8C287.473 218.792 287.055 218.785 286.624 218.777C286.256 218.771 285.889 218.766 285.51 218.761C284.475 218.647 283.852 218.444 282.982 217.879C282.276 216.809 282.276 216.809 281.555 215.461C281.283 214.965 281.01 214.469 280.736 213.975C280.526 213.595 280.526 213.595 280.311 213.208C279.654 212.054 278.941 210.938 278.217 209.825C278.074 209.604 277.931 209.384 277.783 209.156C277.482 208.695 277.181 208.233 276.88 207.772C276.016 206.451 275.157 205.127 274.299 203.802C274.12 203.526 273.94 203.25 273.756 202.965C272.546 201.096 271.361 199.212 270.187 197.32C268.325 194.324 266.376 191.393 264.406 188.467C261.384 183.972 258.408 179.461 255.557 174.855C252.953 170.664 250.184 166.596 247.378 162.539C245.809 160.265 244.376 157.925 242.967 155.549C241.451 153.011 239.803 150.567 238.152 148.115C237.477 147.108 236.813 146.094 236.155 145.075C235.948 144.755 235.74 144.435 235.527 144.105C234.989 143.179 234.592 142.257 234.22 141.254C233.837 141.254 233.454 141.254 233.06 141.254C233.06 141.646 233.061 142.038 233.062 142.441C233.079 151.966 233.092 161.49 233.1 171.014C233.104 175.62 233.109 180.226 233.118 184.832C233.126 188.846 233.131 192.859 233.132 196.872C233.133 198.998 233.136 201.124 233.141 203.25C233.147 205.25 233.148 207.25 233.147 209.249C233.147 209.984 233.149 210.72 233.152 211.455C233.156 212.456 233.155 213.457 233.153 214.458C233.155 214.752 233.157 215.045 233.159 215.347C233.151 216.793 233.109 217.418 232.286 218.653C231.355 218.793 231.355 218.793 230.173 218.785C229.731 218.785 229.29 218.785 228.835 218.785C228.117 218.776 228.117 218.776 227.385 218.767C226.896 218.765 226.408 218.763 225.904 218.762C224.605 218.756 223.306 218.746 222.007 218.733C220.681 218.721 219.356 218.716 218.03 218.71C215.429 218.697 212.828 218.678 210.227 218.653C209.738 217.676 209.791 217.007 209.79 215.913C209.789 215.494 209.787 215.075 209.786 214.643C209.787 214.179 209.787 213.715 209.788 213.237C209.787 212.747 209.786 212.257 209.785 211.752C209.783 210.387 209.783 209.023 209.783 207.658C209.784 206.188 209.781 204.718 209.78 203.248C209.776 200.367 209.775 197.486 209.775 194.604C209.775 192.264 209.774 189.923 209.773 187.582C209.769 180.952 209.768 174.321 209.768 167.691C209.768 167.333 209.768 166.976 209.768 166.607C209.768 166.249 209.768 165.891 209.768 165.522C209.768 159.714 209.764 153.906 209.759 148.098C209.753 142.141 209.751 136.184 209.751 130.227C209.751 126.88 209.75 123.533 209.746 120.186C209.743 117.337 209.742 114.488 209.744 111.639C209.746 110.184 209.746 108.73 209.742 107.275C209.739 105.701 209.741 104.127 209.744 102.553C209.742 102.089 209.74 101.625 209.738 101.146C209.741 100.518 209.741 100.518 209.743 99.8769C209.743 99.5132 209.743 99.1495 209.743 98.7747C209.84 97.9102 209.84 97.9102 210.614 97.1362Z" fill="white"/>
<path d="M333.842 97.4732C334.29 97.4719 334.738 97.4707 335.2 97.4695C335.688 97.4702 336.175 97.471 336.678 97.4718C337.175 97.4715 337.671 97.4711 338.183 97.4707C339.236 97.4701 340.289 97.471 341.341 97.4728C342.694 97.475 344.046 97.4737 345.398 97.4714C346.684 97.4697 347.97 97.4709 349.255 97.4718C349.743 97.471 350.231 97.4703 350.733 97.4695C351.181 97.4707 351.63 97.4719 352.091 97.4732C352.488 97.4735 352.885 97.4738 353.293 97.4741C354.189 97.5232 354.189 97.5232 354.576 97.9102C354.614 98.5514 354.625 99.1941 354.625 99.8364C354.626 100.256 354.627 100.676 354.628 101.108C354.627 101.575 354.626 102.042 354.626 102.523C354.626 103.015 354.627 103.506 354.627 104.013C354.629 105.383 354.628 106.754 354.627 108.125C354.626 109.6 354.628 111.076 354.629 112.552C354.63 115.445 354.63 118.339 354.629 121.232C354.628 123.583 354.628 125.933 354.628 128.284C354.628 128.617 354.628 128.951 354.628 129.295C354.629 129.973 354.629 130.651 354.629 131.33C354.63 137.696 354.629 144.063 354.627 150.43C354.625 155.899 354.625 161.368 354.627 166.837C354.629 173.18 354.63 179.523 354.629 185.866C354.628 186.542 354.628 187.217 354.628 187.893C354.628 188.392 354.628 188.392 354.628 188.901C354.628 191.25 354.628 193.599 354.629 195.948C354.63 198.808 354.63 201.669 354.628 204.53C354.627 205.991 354.627 207.452 354.628 208.913C354.629 210.493 354.628 212.073 354.626 213.653C354.626 214.12 354.627 214.587 354.628 215.068C354.627 215.698 354.627 215.698 354.625 216.34C354.625 216.705 354.625 217.071 354.625 217.447C354.576 218.266 354.576 218.266 354.189 218.653C353.491 218.692 352.791 218.703 352.091 218.703C351.419 218.705 351.419 218.705 350.733 218.707C350.002 218.706 350.002 218.706 349.255 218.705C348.759 218.705 348.262 218.705 347.75 218.706C346.697 218.706 345.644 218.706 344.592 218.704C343.239 218.702 341.887 218.703 340.535 218.705C339.249 218.707 337.964 218.706 336.678 218.705C336.19 218.705 335.702 218.706 335.2 218.707C334.752 218.706 334.304 218.705 333.842 218.703C333.445 218.703 333.048 218.703 332.64 218.702C331.744 218.653 331.744 218.653 331.357 218.266C331.319 217.625 331.308 216.982 331.308 216.34C331.307 215.92 331.306 215.501 331.305 215.068C331.306 214.601 331.307 214.134 331.308 213.653C331.307 213.162 331.306 212.67 331.306 212.164C331.304 210.793 331.305 209.422 331.306 208.052C331.307 206.576 331.306 205.1 331.305 203.625C331.303 200.731 331.303 197.838 331.304 194.944C331.305 192.594 331.305 190.243 331.305 187.893C331.305 187.559 331.305 187.225 331.305 186.881C331.305 186.203 331.304 185.525 331.304 184.847C331.303 178.48 331.304 172.114 331.307 165.747C331.308 160.278 331.308 154.809 331.306 149.34C331.304 142.997 331.303 136.654 331.304 130.311C331.305 129.635 331.305 128.959 331.305 128.284C331.305 127.951 331.305 127.618 331.305 127.276C331.305 124.927 331.305 122.578 331.304 120.229C331.303 117.368 331.303 114.507 331.305 111.647C331.306 110.186 331.307 108.725 331.305 107.264C331.304 105.684 331.306 104.103 331.308 102.523C331.307 102.056 331.306 101.59 331.305 101.108C331.306 100.689 331.307 100.269 331.308 99.8364C331.308 99.2885 331.308 99.2885 331.308 98.7296C331.405 97.0943 332.437 97.4742 333.842 97.4732Z" fill="white"/>
<path d="M436.027 94.3653C448.759 94.047 462.105 98.3165 472.224 106.037C472.604 106.312 472.985 106.586 473.377 106.869C475.784 108.621 477.921 110.455 479.964 112.616C480.271 112.922 480.578 113.228 480.895 113.543C481.907 114.56 482.887 115.598 483.858 116.655C484.343 117.181 484.343 117.181 484.839 117.718C485.768 118.807 486.535 119.932 487.316 121.13C487.776 121.711 488.235 122.291 488.695 122.872C492.751 128.459 495.431 134.946 496.991 141.641C497.072 141.972 497.152 142.303 497.235 142.645C498.459 147.909 498.681 153.119 498.684 158.499C498.686 158.966 498.686 158.966 498.687 159.442C498.685 164.854 498.241 170.1 496.87 175.358C496.785 175.688 496.7 176.017 496.612 176.357C494.347 184.893 490.043 192.126 484.44 198.88C483.765 199.694 483.765 199.694 483.446 200.851C483.993 201.708 483.993 201.708 484.825 202.617C486.507 204.594 488.121 206.612 489.711 208.664C489.936 208.953 490.161 209.243 490.393 209.541C491.455 210.91 492.509 212.285 493.546 213.674C494.577 215.053 495.633 216.408 496.701 217.758C497.069 218.227 497.437 218.696 497.805 219.164C498.547 220.11 499.296 221.05 500.048 221.988C500.4 222.432 500.752 222.877 501.103 223.321C501.578 223.915 501.578 223.915 502.062 224.52C502.777 225.59 503.049 226.289 503.183 227.554C501.914 227.977 500.967 227.996 499.631 228.005C499.137 228.008 498.643 228.012 498.135 228.015C496.173 228.019 494.21 228.015 492.248 228.002C490.76 227.993 489.273 227.99 487.785 228.004C486.343 228.017 484.902 228.013 483.46 227.997C482.912 227.994 482.365 227.997 481.818 228.006C477.559 228.069 477.559 228.069 475.871 226.812C475.081 225.935 474.423 225.054 473.772 224.071C473.315 223.48 472.856 222.891 472.393 222.306C472.174 222.019 471.956 221.732 471.731 221.436C471.063 220.589 470.36 219.791 469.636 218.992C468.461 217.674 467.62 216.347 466.806 214.783C464.571 214.979 462.939 215.634 460.952 216.646C453.205 220.436 445.56 221.066 437.079 221.072C436.724 221.072 436.369 221.073 436.003 221.073C430.849 221.067 425.798 220.986 420.753 219.814C420.469 219.75 420.185 219.686 419.892 219.619C415.887 218.673 412.328 217.112 408.712 215.17C407.449 214.501 406.167 213.871 404.886 213.235C404.886 212.98 404.886 212.724 404.886 212.461C404.605 212.355 404.324 212.249 404.035 212.139C399.697 210.33 396.494 207.067 393.184 203.836C392.633 203.301 392.073 202.776 391.509 202.254C383.742 194.931 378.826 185.005 375.934 174.85C375.863 174.603 375.792 174.356 375.72 174.101C374.316 168.833 373.709 163.646 373.757 158.209C373.758 157.916 373.76 157.622 373.761 157.319C373.87 141.671 379.724 126.317 390.567 114.938C390.77 114.725 390.973 114.511 391.182 114.292C394.005 111.341 396.819 108.68 400.242 106.424C400.732 106.088 401.221 105.751 401.71 105.414C412.07 98.3833 423.566 94.9406 436.027 94.3653ZM433.022 117.653C422.266 118.007 413.593 123.585 406.434 131.192C406.164 131.471 405.893 131.75 405.615 132.037C397.729 140.921 397.063 153.232 397.533 164.474C397.712 166.466 398.128 168.361 398.694 170.279C398.797 170.661 398.901 171.043 399.007 171.437C400.51 176.474 402.961 181.048 406.434 184.985C406.729 185.376 407.025 185.767 407.329 186.17C413.892 193.344 423.611 198.121 433.307 198.573C439.576 198.761 445.356 198.281 451.326 196.207C451.074 194.332 450.729 193.33 449.391 191.95C449.135 191.95 448.88 191.95 448.617 191.95C448.509 191.723 448.402 191.496 448.291 191.262C447.868 190.451 447.41 189.762 446.86 189.033C446.669 188.778 446.478 188.524 446.281 188.261C445.976 187.86 445.976 187.86 445.666 187.452C445.457 187.175 445.249 186.899 445.034 186.614C443.677 184.823 442.3 183.052 440.881 181.31C439.949 180.149 439.037 178.973 438.125 177.797C437.41 176.878 436.691 175.963 435.971 175.048C435.502 174.45 435.033 173.852 434.564 173.254C434.324 172.95 434.085 172.647 433.838 172.334C433.493 171.893 433.493 171.893 433.141 171.444C432.936 171.183 432.73 170.921 432.518 170.652C431.987 169.908 431.601 169.164 431.202 168.344C434.65 168.299 438.098 168.264 441.546 168.243C443.148 168.233 444.749 168.22 446.35 168.198C447.896 168.177 449.441 168.165 450.987 168.16C451.576 168.157 452.166 168.15 452.755 168.139C453.581 168.125 454.407 168.123 455.234 168.124C455.704 168.12 456.174 168.115 456.658 168.111C458.979 168.544 460.111 170.566 461.436 172.383C462.803 174.229 464.185 176.061 465.596 177.873C465.776 178.107 465.956 178.341 466.141 178.582C466.956 179.626 467.628 180.373 468.741 181.115C470.505 178.658 471.843 176.168 472.998 173.375C473.137 173.049 473.277 172.724 473.421 172.389C477.384 162.48 476.462 151.023 472.611 141.254C472.355 141.254 472.1 141.254 471.837 141.254C471.771 140.837 471.771 140.837 471.705 140.412C470.875 136.86 468.343 133.909 466.032 131.192C465.732 130.822 465.732 130.822 465.427 130.444C459.842 123.63 451.57 119.397 442.992 117.776C441.891 117.673 440.821 117.639 439.716 117.647C439.076 117.633 439.076 117.633 438.423 117.618C436.622 117.592 434.823 117.645 433.022 117.653Z" fill="white"/>
<path d="M540.722 97.1362C541.883 97.5232 541.883 97.5232 542.27 98.2972C542.31 99.296 542.326 100.285 542.326 101.283C542.328 101.752 542.328 101.752 542.33 102.229C542.334 103.281 542.336 104.333 542.337 105.384C542.34 106.136 542.342 106.888 542.345 107.64C542.351 109.265 542.355 110.889 542.359 112.513C542.365 115.089 542.374 117.664 542.384 120.24C542.412 127.567 542.435 134.894 542.454 142.221C542.466 146.264 542.479 150.307 542.496 154.35C542.504 156.487 542.512 158.624 542.515 160.76C541.39 178.492 541.39 178.492 547.558 194.2C551.093 197.428 555.95 198.684 560.673 198.489C564.14 198.166 567.074 197.497 570.134 195.82C570.649 195.561 571.165 195.302 571.682 195.046C571.682 194.791 571.682 194.536 571.682 194.272C571.961 194.009 572.24 193.746 572.528 193.474C578.171 188.007 577.364 178.602 577.487 171.44C577.551 166.129 577.525 160.817 577.513 155.506C577.509 153.475 577.508 151.445 577.506 149.414C577.502 144.283 577.495 139.153 577.487 134.022C577.478 128.444 577.47 122.866 577.466 117.288C577.464 114.875 577.46 112.463 577.455 110.051C577.452 108.56 577.451 107.07 577.45 105.579C577.449 104.886 577.448 104.193 577.446 103.5C577.443 102.558 577.443 101.617 577.443 100.675C577.441 100.398 577.44 100.12 577.439 99.8342C577.443 97.9544 577.443 97.9544 577.874 97.5232C578.586 97.4869 579.3 97.4778 580.014 97.4793C580.471 97.4793 580.928 97.4794 581.399 97.4794C581.896 97.4814 582.394 97.4834 582.906 97.4854C583.412 97.486 583.919 97.4865 584.44 97.4871C585.788 97.4886 587.137 97.4924 588.485 97.4967C589.859 97.5006 591.234 97.5024 592.609 97.5043C595.308 97.5085 598.007 97.5151 600.707 97.5232C600.725 108.662 600.738 119.8 600.747 130.939C600.747 131.97 600.748 133.002 600.749 134.033C600.749 134.29 600.749 134.546 600.75 134.81C600.753 138.692 600.758 142.574 600.765 146.456C600.773 150.966 600.778 155.477 600.779 159.987C600.78 162.373 600.783 164.759 600.788 167.145C600.794 169.396 600.795 171.646 600.794 173.897C600.794 174.719 600.796 175.54 600.799 176.362C600.84 188.172 599.501 199.576 590.858 208.398C590.369 208.877 590.369 208.877 589.871 209.365C589.55 209.699 589.23 210.033 588.9 210.377C581.541 217.967 573.253 220.875 562.738 221.04C552.74 221.101 545.024 220.136 536.465 214.783C536.244 214.648 536.023 214.512 535.796 214.372C535.231 214.015 534.685 213.627 534.143 213.235C534.143 212.98 534.143 212.724 534.143 212.461C533.823 212.324 533.823 212.324 533.496 212.183C527.127 208.678 523.718 201.881 521.716 195.212C519.759 188.154 519.374 180.87 519.215 173.585C519.207 173.24 519.199 172.894 519.191 172.539C518.902 159.349 519.007 146.149 519.022 132.957C519.027 129.126 519.029 125.295 519.031 121.464C519.035 113.613 519.041 105.762 519.05 97.9102C520.498 97.659 521.858 97.4762 523.329 97.4854C523.883 97.4874 523.883 97.4874 524.448 97.4893C524.839 97.4925 525.231 97.4957 525.635 97.499C526.042 97.5005 526.45 97.502 526.869 97.5035C528.165 97.5082 529.461 97.5154 530.757 97.5232C532.468 97.5335 534.179 97.5412 535.891 97.5474C536.483 97.5522 536.483 97.5522 537.088 97.5571C537.452 97.5584 537.816 97.5597 538.192 97.561C538.513 97.563 538.834 97.5651 539.165 97.5672C539.975 97.5736 539.975 97.5736 540.722 97.1362Z" fill="white"/>
<path d="M627.022 97.5232C635.543 97.5142 644.064 97.5074 652.585 97.5032C656.541 97.5012 660.497 97.4984 664.453 97.494C667.899 97.4902 671.346 97.4877 674.793 97.4868C676.619 97.4863 678.445 97.4851 680.272 97.4823C681.988 97.4797 683.705 97.4789 685.422 97.4794C686.054 97.4793 686.686 97.4786 687.318 97.4771C688.177 97.4752 689.036 97.4756 689.895 97.4767C690.377 97.4763 690.859 97.476 691.356 97.4756C692.425 97.5232 692.425 97.5232 692.812 97.9102C692.85 98.5969 692.861 99.2852 692.862 99.9729C692.863 100.413 692.864 100.854 692.866 101.307C692.864 102.026 692.864 102.026 692.863 102.76C692.864 103.248 692.864 103.736 692.864 104.239C692.865 105.274 692.864 106.308 692.862 107.343C692.86 108.671 692.861 110 692.864 111.329C692.865 112.592 692.864 113.856 692.863 115.119C692.864 115.599 692.865 116.078 692.866 116.572C692.864 117.232 692.864 117.232 692.862 117.906C692.862 118.296 692.861 118.686 692.861 119.088C692.812 119.969 692.812 119.969 692.425 120.356C691.872 120.393 691.317 120.403 690.762 120.403C690.403 120.403 690.045 120.404 689.675 120.404C689.278 120.403 688.882 120.401 688.473 120.4C687.85 120.4 687.85 120.4 687.215 120.4C685.835 120.4 684.455 120.397 683.075 120.394C682.121 120.393 681.167 120.393 680.213 120.392C677.697 120.391 675.181 120.387 672.665 120.383C669.649 120.378 666.632 120.376 663.616 120.374C659.029 120.37 654.442 120.363 649.855 120.356C649.983 127.38 650.111 134.404 650.242 141.641C671.314 141.832 671.314 141.832 692.812 142.028C692.824 147.38 692.824 147.38 692.836 152.84C692.84 153.967 692.843 155.095 692.847 156.257C692.848 157.145 692.849 158.033 692.85 158.921C692.852 159.387 692.854 159.853 692.856 160.333C692.856 160.993 692.856 160.993 692.856 161.666C692.857 162.05 692.857 162.435 692.858 162.83C692.812 163.7 692.812 163.7 692.425 164.087C691.872 164.124 691.317 164.134 690.762 164.133C690.403 164.134 690.045 164.134 689.675 164.135C689.278 164.133 688.882 164.132 688.473 164.131C687.85 164.131 687.85 164.131 687.215 164.131C685.835 164.131 684.455 164.128 683.075 164.124C682.121 164.124 681.167 164.123 680.213 164.123C677.697 164.121 675.181 164.118 672.665 164.113C669.649 164.108 666.632 164.107 663.616 164.105C659.029 164.101 654.442 164.093 649.855 164.087C649.983 174.303 650.111 184.52 650.242 195.046C653.25 195.037 656.258 195.028 659.358 195.019C661.259 195.015 663.16 195.012 665.061 195.009C668.082 195.004 671.102 194.999 674.122 194.988C676.556 194.98 678.99 194.975 681.424 194.973C682.355 194.972 683.285 194.969 684.216 194.965C685.515 194.959 686.814 194.958 688.113 194.959C688.501 194.956 688.889 194.953 689.289 194.95C689.642 194.951 689.995 194.952 690.358 194.953C690.666 194.953 690.973 194.952 691.29 194.951C692.038 195.046 692.038 195.046 692.812 195.82C692.908 196.728 692.908 196.728 692.906 197.879C692.907 198.309 692.908 198.739 692.909 199.183C692.905 199.882 692.905 199.882 692.901 200.596C692.901 201.073 692.901 201.55 692.9 202.042C692.899 203.312 692.894 204.582 692.888 205.852C692.882 207.143 692.884 208.434 692.884 209.724C692.882 210.705 692.879 211.685 692.877 212.665C692.876 213.131 692.876 213.597 692.876 214.076C692.873 214.508 692.871 214.939 692.868 215.383C692.867 215.763 692.865 216.144 692.864 216.535C692.812 217.492 692.812 217.492 692.425 218.653C683.955 218.662 675.484 218.669 667.014 218.673C663.081 218.675 659.149 218.678 655.216 218.682C651.79 218.686 648.363 218.689 644.937 218.69C643.122 218.69 641.306 218.691 639.491 218.694C637.784 218.697 636.078 218.698 634.371 218.697C633.743 218.697 633.114 218.698 632.486 218.699C631.632 218.701 630.778 218.701 629.924 218.7C629.445 218.7 628.966 218.7 628.472 218.701C627.409 218.653 627.409 218.653 627.022 218.266C626.985 217.623 626.974 216.978 626.975 216.333C626.974 215.912 626.973 215.49 626.972 215.056C626.974 214.587 626.975 214.119 626.976 213.636C626.975 213.142 626.975 212.649 626.975 212.141C626.974 210.765 626.976 209.389 626.977 208.013C626.979 206.532 626.979 205.051 626.978 203.57C626.978 201.001 626.979 198.433 626.981 195.864C626.985 192.151 626.986 188.437 626.986 184.723C626.987 178.699 626.99 172.675 626.993 166.65C626.997 160.796 626.999 154.943 627.001 149.089C627.001 148.728 627.001 148.368 627.001 147.996C627.002 146.188 627.002 144.379 627.003 142.57C627.007 127.555 627.014 112.539 627.022 97.5232Z" fill="white"/>
<path d="M232.721 251.766C233.088 252.077 233.455 252.388 233.833 252.709C233.833 252.964 233.833 253.22 233.833 253.483C234.089 253.483 234.344 253.483 234.607 253.483C236.247 256.379 237.377 259.439 236.542 262.771C235.277 262.827 234.012 262.861 232.745 262.892C232.386 262.908 232.026 262.924 231.656 262.941C230.671 262.959 229.771 262.951 228.803 262.771C228.016 261.912 228.016 261.912 227.642 260.836C227.52 260.522 227.399 260.208 227.274 259.885C227.18 259.584 227.086 259.283 226.988 258.973C226.891 258.668 226.794 258.362 226.694 258.047C226.623 257.818 226.553 257.589 226.481 257.353C225.134 257.231 224.382 257.215 223.215 257.933C222.495 259.086 222.538 259.854 222.707 261.185C223.483 263.356 225.275 264.549 227.109 265.794C227.594 266.132 228.077 266.471 228.561 266.81C228.798 266.977 229.036 267.143 229.28 267.315C232.692 269.745 236.116 272.336 236.929 276.703C237.3 283.623 237.3 283.623 235.768 286.765C235.617 287.108 235.465 287.451 235.309 287.805C233.101 290.622 230.349 291.691 226.868 292.183C222.844 292.522 219.568 292.267 216.198 289.951C215.127 288.966 214.622 288.075 214 286.765C213.806 286.366 213.613 285.967 213.413 285.555C212.602 283.666 212.496 282.181 212.5 280.113C212.499 279.629 212.498 279.144 212.497 278.645C212.549 277.477 212.549 277.477 212.936 277.09C214.279 276.993 215.628 277.018 216.975 277.017C217.544 277.01 217.544 277.01 218.125 277.003C218.487 277.002 218.849 277.001 219.223 277.001C219.557 276.999 219.891 276.997 220.235 276.996C221.063 277.09 221.063 277.09 221.837 277.864C221.891 278.938 221.835 279.991 221.788 281.066C221.839 282.167 222.009 282.754 222.611 283.669C223.791 284.259 224.794 284.147 226.094 284.056C226.998 283.483 227.198 283.035 227.593 282.048C227.678 280.132 227.123 278.6 225.876 277.171C224.017 275.475 221.907 274.119 219.799 272.754C217.947 271.537 217.947 271.537 217.193 270.898C217.193 270.642 217.193 270.387 217.193 270.124C216.842 269.978 216.842 269.978 216.484 269.829C215.524 269.281 215.173 268.812 214.605 267.874C214.443 267.617 214.282 267.359 214.116 267.093C212.645 264.057 212.923 259.555 213.782 256.361C214.672 253.896 215.974 252.479 218.281 251.258C223.024 249.079 228.228 248.71 232.721 251.766Z" fill="white"/>
<path d="M305.798 250.718C306.291 250.715 306.785 250.713 307.293 250.71C307.836 250.71 308.379 250.709 308.921 250.709C309.474 250.708 310.027 250.706 310.58 250.705C311.741 250.703 312.901 250.702 314.062 250.702C315.551 250.702 317.04 250.697 318.529 250.69C319.672 250.686 320.814 250.685 321.956 250.685C322.505 250.685 323.055 250.683 323.604 250.68C324.371 250.677 325.138 250.678 325.905 250.68C326.561 250.679 326.561 250.679 327.23 250.678C328.261 250.774 328.261 250.774 329.035 251.548C329.129 252.269 329.129 252.269 329.124 253.134C329.123 253.444 329.122 253.754 329.122 254.073C329.117 254.397 329.112 254.721 329.107 255.055C329.107 255.543 329.107 255.543 329.106 256.042C329.089 258.46 329.089 258.46 328.648 258.901C328.072 258.934 327.494 258.942 326.917 258.939C326.569 258.937 326.221 258.936 325.862 258.935C325.496 258.932 325.131 258.928 324.754 258.925C324.386 258.923 324.019 258.922 323.64 258.92C322.729 258.915 321.819 258.909 320.908 258.901C320.909 259.292 320.909 259.683 320.91 260.086C320.918 263.765 320.924 267.443 320.928 271.122C320.93 273.014 320.933 274.905 320.937 276.797C320.941 278.621 320.943 280.445 320.944 282.269C320.945 282.966 320.947 283.663 320.949 284.361C320.951 285.334 320.952 286.308 320.952 287.282C320.953 287.573 320.954 287.863 320.956 288.162C320.952 290.159 320.952 290.159 320.521 291.022C317.456 291.022 314.391 291.022 311.233 291.022C311.233 280.422 311.233 269.822 311.233 258.901C308.551 258.901 305.869 258.901 303.106 258.901C303.098 257.632 303.09 256.363 303.082 255.055C303.078 254.655 303.075 254.254 303.071 253.841C303.07 253.371 303.07 253.371 303.068 252.892C303.066 252.57 303.064 252.247 303.062 251.915C303.157 250.278 304.439 250.722 305.798 250.718Z" fill="white"/>
<path d="M399.117 250.723C399.516 250.722 399.915 250.722 400.325 250.721C400.955 250.723 400.955 250.723 401.597 250.726C402.016 250.724 402.436 250.723 402.868 250.721C403.267 250.722 403.665 250.722 404.076 250.723C404.628 250.723 404.628 250.723 405.192 250.724C406.047 250.774 406.047 250.774 406.434 251.161C406.48 252.074 406.502 252.977 406.507 253.891C406.511 254.177 406.514 254.463 406.517 254.757C406.524 255.38 406.53 256.003 406.535 256.626C406.543 257.614 406.553 258.601 406.565 259.589C406.588 261.69 406.608 263.79 406.628 265.891C406.651 268.316 406.675 270.741 406.702 273.166C406.712 274.136 406.72 275.106 406.728 276.076C406.735 276.677 406.741 277.278 406.748 277.879C406.75 278.279 406.75 278.279 406.753 278.688C406.776 280.507 406.957 282.257 407.208 284.056C408.741 284.056 410.273 284.056 411.852 284.056C411.855 283.65 411.858 283.245 411.862 282.827C411.891 279.011 411.925 275.196 411.963 271.38C411.983 269.419 412.001 267.457 412.015 265.495C412.03 263.603 412.047 261.711 412.068 259.819C412.075 259.096 412.081 258.373 412.086 257.65C412.092 256.64 412.103 255.63 412.116 254.62C412.116 254.319 412.117 254.018 412.118 253.707C412.151 251.636 412.151 251.636 413.013 250.774C413.781 250.68 413.781 250.68 414.714 250.685C415.052 250.686 415.39 250.686 415.738 250.687C416.092 250.692 416.446 250.697 416.81 250.701C417.16 250.702 417.509 250.702 417.869 250.702C419.54 250.713 421.05 250.819 422.688 251.161C422.655 254.801 422.618 258.442 422.577 262.082C422.557 263.773 422.54 265.464 422.525 267.155C422.51 268.791 422.492 270.427 422.472 272.063C422.465 272.683 422.459 273.302 422.454 273.922C422.365 285.659 422.365 285.659 419.385 288.973C416.472 291.701 413.387 291.984 409.554 291.941C409.154 291.945 408.755 291.95 408.343 291.954C405.431 291.943 402.859 291.651 400.427 289.953C395.834 285.177 396.698 278.637 396.708 272.414C396.708 271.798 396.707 271.182 396.707 270.566C396.706 269.288 396.707 268.01 396.709 266.733C396.711 265.092 396.71 263.452 396.707 261.811C396.706 260.545 396.706 259.279 396.707 258.013C396.708 257.408 396.707 256.802 396.706 256.197C396.705 255.357 396.707 254.517 396.709 253.677C396.709 253.199 396.71 252.721 396.71 252.229C396.793 250.416 397.489 250.725 399.117 250.723Z" fill="white"/>
<path d="M495.523 250.695C495.847 250.693 496.17 250.691 496.504 250.689C497.192 250.685 497.881 250.683 498.57 250.681C499.609 250.677 500.647 250.665 501.686 250.653C511.024 250.595 511.024 250.595 514.406 253.483C518.809 257.989 518.321 264.953 518.266 270.842C518.251 271.934 518.228 273.025 518.2 274.117C518.186 274.657 518.175 275.196 518.164 275.736C518.069 280.458 517.877 285.169 514.406 288.7C511.619 291.107 507.906 291.141 504.379 291.111C504.033 291.111 503.687 291.111 503.331 291.11C502.609 291.109 501.887 291.106 501.165 291.101C500.054 291.094 498.943 291.093 497.833 291.093C497.128 291.092 496.424 291.089 495.72 291.087C495.387 291.086 495.054 291.086 494.711 291.085C492.392 291.067 492.392 291.067 491.96 290.635C491.921 289.411 491.908 288.197 491.91 286.973C491.91 286.589 491.909 286.204 491.908 285.808C491.907 284.531 491.908 283.253 491.909 281.976C491.909 281.092 491.908 280.209 491.908 279.325C491.907 277.471 491.908 275.616 491.91 273.762C491.912 271.379 491.911 268.996 491.909 266.613C491.907 264.788 491.908 262.962 491.909 261.137C491.909 260.258 491.909 259.379 491.908 258.5C491.907 257.274 491.908 256.048 491.91 254.822C491.91 254.455 491.909 254.088 491.908 253.71C491.919 250.424 492.497 250.711 495.523 250.695ZM502.409 258.901C501.964 260.134 501.973 261.33 501.972 262.631C501.971 263.069 501.97 263.507 501.969 263.958C501.969 264.429 501.97 264.9 501.971 265.385C501.971 265.869 501.97 266.354 501.97 266.853C501.97 267.878 501.97 268.902 501.972 269.926C501.974 271.239 501.973 272.552 501.97 273.864C501.969 275.117 501.97 276.37 501.971 277.623C501.97 278.095 501.969 278.567 501.969 279.053C501.97 279.489 501.971 279.926 501.972 280.376C501.973 280.76 501.973 281.145 501.973 281.541C501.982 282.558 501.982 282.558 502.409 283.669C503.735 283.664 504.988 283.594 506.279 283.282C508.474 280.926 508.283 278.159 508.306 275.122C508.31 274.744 508.313 274.367 508.316 273.978C508.321 273.181 508.325 272.384 508.328 271.587C508.333 270.774 508.341 269.961 508.352 269.148C508.369 267.971 508.375 266.794 508.379 265.616C508.386 265.255 508.393 264.894 508.4 264.522C508.392 262.192 508.047 260.8 506.666 258.901C505.8 258.485 505.8 258.485 504.876 258.514C504.426 258.49 504.426 258.49 503.966 258.466C503.156 258.464 503.156 258.464 502.409 258.901Z" fill="white"/>
<path d="M588.323 250.774C591.388 250.774 594.453 250.774 597.61 250.774C597.61 264.056 597.61 277.337 597.61 291.022C594.545 291.022 591.48 291.022 588.323 291.022C587.563 290.262 587.886 289.097 587.883 288.086C587.884 287.719 587.885 287.352 587.885 286.973C587.885 286.589 587.884 286.204 587.883 285.808C587.882 284.531 587.883 283.253 587.884 281.976C587.884 281.092 587.884 280.209 587.883 279.325C587.882 277.471 587.883 275.616 587.885 273.762C587.887 271.379 587.886 268.996 587.884 266.613C587.882 264.788 587.883 262.962 587.884 261.137C587.884 260.258 587.884 259.379 587.883 258.5C587.882 257.274 587.883 256.048 587.885 254.822C587.885 254.455 587.884 254.088 587.883 253.71C587.891 251.205 587.891 251.205 588.323 250.774Z" fill="white"/>
</svg>
